<svg width="671" height="323" viewBox="0 0 671 323" fill="none" xmlns="http://www.w3.org/2000/svg">
<path d="M1.1656 157.669L7.2665 227.403C9.67324 254.912 33.9249 275.261 61.434 272.855L302.616 252.942C302.616 252.942 310.088 252.288 316.046 257.288C320.51 262.419 320.903 266.901 320.903 266.901L321.774 276.863C324.181 304.372 348.432 324.722 375.942 322.315L624.99 300.526C652.499 298.12 672.849 273.868 670.442 246.359L669.396 234.405C666.99 206.895 642.738 186.546 615.229 188.953L508.916 195.744C508.916 195.744 506.679 195.536 505.342 195.053C504.018 194.575 503.415 193.998 502.179 193.322C500.898 192.407 500.089 191.461 499.384 190.053C498.406 188.102 498.283 186.785 497.908 184.661C497.501 182.346 496.887 178.728 496.887 178.728C494.79 154.605 489.301 114.963 489.301 114.963C486.894 87.4535 462.145 67.1476 434.635 69.5543L431.149 69.8594C431.149 69.8594 428.074 70.0138 426.124 69.7971C421.065 69.2349 419.387 67.375 419.387 67.375C419.387 67.375 415.581 64.0899 414.809 60.9332C413.246 54.5451 412.461 45.5793 412.461 45.5793C410.055 18.0702 384.309 -2.14864 356.8 0.258101L207.37 13.3315C185.436 15.2505 168.053 31.0584 163.129 51.332C161.877 56.4841 161.431 61.9247 161.918 67.499L162.659 75.9666C162.659 75.9666 162.956 79.3537 159.957 85.2374C157.815 89.4401 154.034 92.1186 151.558 92.4971C149.081 92.8756 117.29 96.6524 117.29 96.6524L46.6175 103.501C19.1084 105.908 -1.24114 130.16 1.1656 157.669Z" fill="#FFD600"/>
<path d="M624.467 294.549L624.99 300.526L375.942 322.315L375.419 316.338L624.467 294.549ZM321.774 276.863L320.903 266.901L326.88 266.378L327.751 276.34C329.869 300.548 351.211 318.456 375.419 316.338L375.942 322.315C348.432 324.722 324.181 304.372 321.774 276.863ZM7.2665 227.403L1.1656 157.669C-1.22233 130.375 18.7917 106.287 45.9739 103.562L46.6175 103.501L117.29 96.6524C117.314 96.6495 149.082 92.8755 151.558 92.4971C154.034 92.1186 157.815 89.4401 159.957 85.2374C162.956 79.3537 162.659 75.9666 162.659 75.9666L161.918 67.499C161.461 62.2732 161.825 57.1649 162.903 52.3016L163.129 51.332C168.053 31.0584 185.436 15.2505 207.37 13.3315L356.8 0.258101C384.309 -2.14864 410.055 18.0702 412.461 45.5793C412.461 45.5793 413.246 54.5451 414.809 60.9332C415.581 64.0899 419.387 67.375 419.387 67.375C419.394 67.3824 421.075 69.236 426.124 69.7971C427.587 69.9596 429.682 69.9138 430.638 69.8806L431.149 69.8594L434.635 69.5543C462.145 67.1476 486.894 87.4535 489.301 114.963C489.307 115.007 494.792 154.619 496.887 178.728C496.887 178.728 497.501 182.346 497.908 184.661C498.283 186.785 498.406 188.102 499.384 190.053C500.089 191.461 500.898 192.407 502.179 193.322C503.415 193.998 504.018 194.575 505.342 195.053C506.679 195.536 508.916 195.744 508.916 195.744L615.229 188.953C642.738 186.546 666.99 206.895 669.396 234.405L670.442 246.359C672.849 273.868 652.499 298.12 624.99 300.526L624.467 294.549C648.675 292.431 666.583 271.09 664.465 246.882L663.419 234.927C661.301 210.719 639.96 192.812 615.752 194.93L615.682 194.936L615.612 194.94L508.829 201.762L508.361 201.719L508.916 195.744C508.385 201.452 508.361 201.706 508.36 201.718L508.356 201.718C508.354 201.718 508.352 201.718 508.351 201.718C508.347 201.717 508.343 201.717 508.339 201.717L508.196 201.702C508.109 201.693 507.99 201.681 507.846 201.664C507.561 201.63 507.165 201.579 506.713 201.509C506.018 201.401 504.881 201.204 503.775 200.855L503.304 200.696C502.135 200.274 501.276 199.796 500.593 199.378C499.834 198.913 499.754 198.835 499.299 198.585L498.984 198.413L498.692 198.204C496.616 196.721 495.163 195.022 494.02 192.741C492.563 189.833 492.319 187.521 491.999 185.702C491.793 184.529 491.535 183.034 491.331 181.838C491.228 181.239 491.139 180.712 491.075 180.335C491.043 180.147 491.017 179.996 491 179.892C490.991 179.84 490.983 179.799 490.978 179.772C490.976 179.759 490.975 179.748 490.974 179.741C490.973 179.738 490.972 179.735 490.972 179.733L490.972 179.731L490.931 179.49L490.91 179.248C489.872 167.311 487.989 151.468 486.356 138.552C485.54 132.107 484.79 126.412 484.244 122.329C483.971 120.288 483.75 118.65 483.596 117.523C483.519 116.961 483.46 116.525 483.419 116.231C483.399 116.084 483.384 115.972 483.374 115.897C483.368 115.86 483.364 115.831 483.361 115.813C483.36 115.804 483.359 115.797 483.359 115.792L483.358 115.786L483.337 115.636L483.324 115.486C481.213 91.3547 459.444 73.4068 435.158 75.5315L431.561 75.8463L431.449 75.8521L431.447 75.8523C431.445 75.8524 431.444 75.8516 431.443 75.8517C431.439 75.8519 431.436 75.8525 431.431 75.8527C431.422 75.8532 431.41 75.8542 431.395 75.8549C431.365 75.8563 431.323 75.8576 431.272 75.8598C431.169 75.8643 431.024 75.8702 430.847 75.8764C430.493 75.8887 429.999 75.9023 429.436 75.9087C428.379 75.9207 426.819 75.9112 425.462 75.7603C422.271 75.4058 419.881 74.6105 418.137 73.723C417.271 73.282 416.584 72.8283 416.053 72.4172C415.789 72.2122 415.565 72.0193 415.379 71.8459C415.353 71.8219 415.329 71.7971 415.305 71.7739C415.27 71.7428 415.23 71.7077 415.186 71.6677C415.039 71.5338 414.84 71.3495 414.606 71.1224C414.142 70.6726 413.511 70.0308 412.843 69.2553C411.667 67.8913 409.72 65.3821 408.98 62.3587C408.118 58.8359 407.498 54.7347 407.098 51.6274C406.895 50.05 406.743 48.6801 406.641 47.7021C406.59 47.2125 406.551 46.8186 406.525 46.5447C406.512 46.4079 406.502 46.3005 406.495 46.2258L406.484 46.1032C404.386 22.1216 381.762 4.09712 357.323 6.23527L207.893 19.3086C188.6 20.9966 173.294 34.9001 168.959 52.7481C167.86 57.2744 167.466 62.0601 167.896 66.9761L168.636 75.4437L162.659 75.9666C168.52 75.4539 168.634 75.4468 168.637 75.4495L168.641 75.4943C168.642 75.5121 168.643 75.5313 168.645 75.5508C168.648 75.5896 168.65 75.6319 168.653 75.6775C168.658 75.7694 168.662 75.8751 168.665 75.9941C168.67 76.2322 168.668 76.5238 168.652 76.8667C168.62 77.5535 168.531 78.4426 168.327 79.5164C167.918 81.6705 167.053 84.5268 165.303 87.9616C163.827 90.8568 161.798 93.2192 159.676 94.9502C157.657 96.5982 155.118 98.0223 152.464 98.428C151.099 98.6366 142.374 99.6937 134.21 100.674C130.079 101.17 126.026 101.654 123.006 102.014C121.496 102.194 120.244 102.344 119.369 102.448C118.932 102.5 118.589 102.54 118.355 102.568C118.239 102.582 118.15 102.593 118.089 102.6C118.059 102.604 118.036 102.606 118.02 102.608L117.999 102.61L117.998 102.611L117.933 102.619L117.868 102.624L47.1959 109.474L47.1405 109.479C22.9324 111.597 5.02484 132.938 7.14277 157.146L13.2437 226.88C15.3616 251.088 36.703 268.995 60.9111 266.877L60.9403 266.875L302.123 246.962L302.133 246.961C302.149 246.96 302.166 246.959 302.185 246.958C302.223 246.955 302.268 246.951 302.321 246.948C302.427 246.941 302.562 246.934 302.723 246.928C303.047 246.916 303.48 246.908 304.004 246.919C305.047 246.941 306.479 247.038 308.141 247.332C311.325 247.894 315.599 249.226 319.524 252.38L319.902 252.692L320.263 252.994L320.573 253.349C323.326 256.513 324.89 259.558 325.772 261.925C326.21 263.104 326.478 264.109 326.64 264.871C326.721 265.253 326.777 265.575 326.814 265.828C326.833 265.955 326.847 266.065 326.857 266.157C326.863 266.203 326.866 266.244 326.87 266.281C326.872 266.3 326.874 266.318 326.876 266.334L326.879 266.374C326.875 266.376 326.723 266.392 320.903 266.901C320.903 266.901 320.51 262.419 316.046 257.288C310.088 252.288 302.616 252.942 302.616 252.942L61.434 272.855C34.1399 275.243 10.0523 255.229 7.32674 228.046L7.2665 227.403Z" fill="#1A1A1A"/>
<path d="M227.415 73.6793C227.056 73.7107 226.741 73.6118 226.468 73.3827C226.195 73.1537 226.042 72.8598 226.011 72.5012L222.947 37.4809C222.913 37.0864 223.01 36.7527 223.239 36.4797C223.468 36.2067 223.762 36.0545 224.121 36.0231L238.537 34.7618C241.335 34.5171 243.813 34.752 245.971 35.4666C248.127 36.1453 249.856 37.3311 251.161 39.0238C252.462 40.6807 253.229 42.8361 253.461 45.4899C253.697 48.1797 253.317 50.4534 252.323 52.3111C251.326 54.1329 249.826 55.5651 247.821 56.6078C245.816 57.6505 243.415 58.2943 240.618 58.539L232.602 59.2402L233.704 71.8282C233.735 72.1868 233.636 72.5026 233.407 72.7756C233.214 73.0455 232.92 73.1977 232.525 73.2322L227.415 73.6793ZM231.972 53.2785L239.826 52.5913C241.906 52.4093 243.46 51.7856 244.487 50.72C245.511 49.6186 245.938 48.0996 245.769 46.163C245.612 44.3698 244.966 42.9808 243.832 41.9959C242.695 40.9751 241.014 40.562 238.791 40.7565L230.937 41.4437L231.972 53.2785Z" fill="black"/>
<path d="M268.14 70.6583C265.953 70.8497 264.01 70.5319 262.311 69.7048C260.645 68.8387 259.304 67.5467 258.286 65.8288C257.265 64.0751 256.647 61.961 256.43 59.4864L255.108 44.3702C255.076 44.0116 255.175 43.6957 255.404 43.4227C255.633 43.1497 255.927 42.9975 256.286 42.9662L261.02 42.552C261.414 42.5175 261.73 42.6163 261.967 42.8485C262.24 43.0776 262.392 43.3715 262.424 43.7301L263.718 58.5236C264.107 62.9706 266.256 65.0231 270.165 64.6811C272.03 64.518 273.449 63.7976 274.421 62.52C275.429 61.2392 275.842 59.5588 275.66 57.4788L274.366 42.6853C274.335 42.3267 274.434 42.0108 274.663 41.7378C274.892 41.4648 275.186 41.3126 275.544 41.2813L280.278 40.8671C280.637 40.8357 280.953 40.9346 281.226 41.1637C281.499 41.3927 281.651 41.6866 281.682 42.0452L283.904 67.4362C283.935 67.7949 283.836 68.1107 283.607 68.3837C283.378 68.6567 283.084 68.8089 282.725 68.8402L278.368 69.2215C277.974 69.256 277.64 69.1587 277.367 68.9296C277.13 68.6974 276.995 68.402 276.964 68.0434L276.771 65.8378C275.913 67.1777 274.797 68.269 273.426 69.1118C272.054 69.9546 270.292 70.4701 268.14 70.6583Z" fill="black"/>
<path d="M289.24 68.2703C288.881 68.3017 288.565 68.2029 288.292 67.9738C288.019 67.7447 287.867 67.4508 287.836 67.0922L284.72 31.4802C284.689 31.1216 284.787 30.8058 285.017 30.5328C285.246 30.2598 285.539 30.1076 285.898 30.0762L290.363 29.6856C290.722 29.6542 291.037 29.7531 291.31 29.9821C291.583 30.2112 291.736 30.5051 291.767 30.8637L294.883 66.4757C294.914 66.8343 294.815 67.1501 294.586 67.4231C294.357 67.6961 294.063 67.8483 293.705 67.8797L289.24 68.2703Z" fill="black"/>
<path d="M309.548 67.0356C307.397 67.2239 305.528 67.1344 303.942 66.7673C302.391 66.3969 301.099 65.8776 300.065 65.2092C299.031 64.5408 298.248 63.8504 297.716 63.1381C297.183 62.4257 296.878 61.8201 296.798 61.3212C296.727 60.9298 296.808 60.6156 297.04 60.3784C297.305 60.1023 297.599 59.9501 297.922 59.9218L302.172 59.55C302.315 59.5375 302.442 59.5444 302.553 59.5709C302.664 59.5973 302.817 59.6924 303.012 59.856C303.512 60.2097 304.033 60.5798 304.572 60.9662C305.148 61.3495 305.809 61.6711 306.554 61.9312C307.296 62.1553 308.206 62.2203 309.281 62.1262C310.68 62.0038 311.822 61.6329 312.707 61.0134C313.626 60.3548 314.039 59.5056 313.948 58.4655C313.882 57.7124 313.614 57.1216 313.143 56.693C312.707 56.2613 311.918 55.9148 310.775 55.6534C309.629 55.3562 308.015 55.0818 305.933 54.8303C303.884 54.5398 302.164 54.0939 300.775 53.4928C299.385 52.8916 298.32 52.0813 297.581 51.0619C296.841 50.0425 296.408 48.8155 296.283 47.381C296.16 45.9823 296.457 44.6193 297.172 43.2919C297.92 41.9256 299.082 40.7578 300.66 39.7886C302.273 38.8163 304.317 38.2219 306.792 38.0054C308.728 37.836 310.436 37.9395 311.914 38.3161C313.39 38.6568 314.625 39.145 315.62 39.7807C316.651 40.4133 317.451 41.0841 318.019 41.7933C318.583 42.4667 318.907 43.0707 318.99 43.6055C319.061 43.9969 318.981 44.3291 318.752 44.6021C318.52 44.8392 318.242 44.9719 317.92 45.0002L313.939 45.3484C313.76 45.3641 313.595 45.3424 313.445 45.2832C313.296 45.224 313.144 45.1469 312.991 45.0519C312.566 44.7278 312.102 44.3889 311.602 44.0351C311.101 43.6814 310.497 43.3909 309.791 43.1637C309.117 42.8974 308.242 42.8113 307.166 42.9054C305.803 43.0246 304.79 43.4205 304.126 44.0929C303.459 44.7294 303.165 45.496 303.243 46.3926C303.297 47.0023 303.505 47.5261 303.868 47.9641C304.265 48.363 305 48.7143 306.075 49.0178C307.149 49.3213 308.763 49.5957 310.917 49.8409C313.357 50.061 315.315 50.5403 316.789 51.2786C318.295 51.978 319.384 52.8584 320.055 53.92C320.759 54.9425 321.169 56.1173 321.285 57.4442C321.426 59.058 321.069 60.5528 320.214 61.9286C319.394 63.3013 318.085 64.4457 316.286 65.362C314.52 66.2393 312.274 66.7972 309.548 67.0356Z" fill="black"/>
<path d="M336.404 64.6861C332.423 65.0343 329.167 64.1628 326.635 62.0715C324.103 59.9802 322.562 56.8265 322.013 52.6104C321.945 52.2549 321.888 51.8082 321.841 51.2702C321.791 50.6964 321.77 50.2466 321.777 49.9207C321.686 47.2184 322.091 44.8339 322.995 42.7673C323.934 40.6976 325.326 39.058 327.172 37.8486C329.014 36.6032 331.244 35.8661 333.862 35.637C336.767 35.3829 339.259 35.7792 341.339 36.826C343.415 37.8369 345.049 39.3743 346.241 41.4382C347.43 43.4663 348.148 45.879 348.392 48.6763L348.491 49.806C348.522 50.1646 348.424 50.4804 348.195 50.7534C347.965 51.0264 347.654 51.1802 347.259 51.2147L329.399 52.7772C329.399 52.7772 329.404 52.831 329.414 52.9386C329.423 53.0462 329.431 53.1359 329.437 53.2076C329.583 54.4596 329.918 55.6048 330.442 56.643C331 57.6423 331.737 58.427 332.654 58.9972C333.607 59.5643 334.693 59.7945 335.912 59.6879C336.917 59.6 337.747 59.3828 338.403 59.0363C339.056 58.6539 339.581 58.2467 339.977 57.8145C340.372 57.3824 340.649 57.0329 340.806 56.7662C341.092 56.3076 341.321 56.0346 341.494 55.9472C341.699 55.8208 342 55.7403 342.394 55.7058L347.02 55.3011C347.379 55.2697 347.675 55.3522 347.909 55.5485C348.179 55.7417 348.31 56.0013 348.303 56.3272C348.317 56.9041 348.073 57.6301 347.572 58.5052C347.106 59.3771 346.388 60.2531 345.417 61.133C344.446 62.013 343.195 62.791 341.664 63.467C340.166 64.104 338.412 64.5103 336.404 64.6861ZM329.004 48.2585L340.893 47.2184L340.879 47.057C340.756 45.6583 340.416 44.4594 339.859 43.4601C339.302 42.4609 338.548 41.6957 337.598 41.1644C336.649 40.6332 335.546 40.4225 334.291 40.5323C333.036 40.6421 331.986 41.0411 331.143 41.7292C330.3 42.4173 329.691 43.3018 329.315 44.3826C328.976 45.4603 328.868 46.6984 328.99 48.0971L329.004 48.2585Z" fill="black"/>
<path d="M375.218 284.431C372.827 284.64 370.778 284.398 369.071 283.704C367.364 283.01 366.041 281.881 365.101 280.317C364.158 278.713 363.578 276.676 363.362 274.206L362.175 260.638L357.453 261.051C357.054 261.085 356.703 260.976 356.4 260.721C356.097 260.467 355.928 260.14 355.893 259.742L355.59 256.275C355.555 255.876 355.664 255.525 355.919 255.222C356.174 254.919 356.5 254.75 356.899 254.715L361.62 254.302L360.752 244.38C360.718 243.981 360.807 243.632 361.022 243.332C361.277 243.029 361.623 242.858 362.061 242.82L366.903 242.396C367.301 242.361 367.652 242.471 367.956 242.726C368.259 242.98 368.428 243.307 368.463 243.705L369.331 253.627L376.802 252.973C377.201 252.939 377.552 253.048 377.855 253.303C378.159 253.557 378.328 253.884 378.363 254.282L378.666 257.749C378.701 258.148 378.591 258.499 378.336 258.802C378.082 259.105 377.755 259.274 377.357 259.309L369.885 259.963L371.02 272.933C371.163 274.567 371.554 275.818 372.192 276.686C372.869 277.55 373.926 277.919 375.36 277.794L379.484 277.433C379.883 277.398 380.234 277.508 380.537 277.762C380.841 278.017 381.01 278.343 381.044 278.742L381.369 282.448C381.404 282.846 381.294 283.197 381.039 283.5C380.785 283.804 380.458 283.973 380.06 284.008L375.218 284.431Z" fill="black"/>
<path d="M384.705 283.601C384.306 283.636 383.955 283.526 383.652 283.272C383.349 283.017 383.179 282.691 383.145 282.292L379.683 242.723C379.648 242.325 379.758 241.974 380.012 241.671C380.267 241.367 380.593 241.198 380.992 241.163L386.311 240.698C386.75 240.66 387.101 240.769 387.364 241.027C387.668 241.282 387.837 241.609 387.871 242.007L389.064 255.635C390.028 254.266 391.252 253.115 392.737 252.182C394.221 251.249 396.099 250.683 398.37 250.484C400.801 250.272 402.962 250.645 404.852 251.604C406.78 252.519 408.328 253.929 409.499 255.835C410.669 257.74 411.377 260.087 411.621 262.877L413.09 279.672C413.125 280.071 413.015 280.422 412.761 280.725C412.506 281.028 412.18 281.198 411.781 281.232L406.402 281.703C406.003 281.738 405.652 281.628 405.349 281.374C405.046 281.119 404.877 280.793 404.842 280.394L403.404 263.957C403.201 261.646 402.465 259.883 401.194 258.669C399.964 257.452 398.272 256.937 396.121 257.126C394.048 257.307 392.432 258.111 391.272 259.537C390.152 260.96 389.693 262.827 389.895 265.139L391.333 281.576C391.368 281.974 391.258 282.325 391.004 282.629C390.789 282.928 390.463 283.098 390.024 283.136L384.705 283.601Z" fill="black"/>
<path d="M426.293 280.565C424.221 280.746 422.313 280.512 420.569 279.861C418.823 279.171 417.392 278.192 416.277 276.924C415.199 275.613 414.585 274.101 414.435 272.387C414.191 269.598 415.113 267.289 417.202 265.46C419.326 263.588 422.217 262.21 425.874 261.328L433.959 259.417L433.849 258.161C433.702 256.488 433.171 255.229 432.254 254.386C431.337 253.543 429.862 253.21 427.83 253.388C426.395 253.513 425.246 253.915 424.382 254.593C423.554 255.227 422.963 256.042 422.608 257.037C422.335 257.583 421.899 257.882 421.301 257.934L416.579 258.347C416.141 258.385 415.792 258.296 415.532 258.077C415.312 257.856 415.184 257.546 415.149 257.147C415.133 256.506 415.324 255.706 415.722 254.748C416.12 253.79 416.801 252.847 417.764 251.919C418.723 250.952 419.993 250.098 421.575 249.358C423.156 248.617 425.103 248.145 427.414 247.943C429.924 247.724 432.064 247.858 433.833 248.345C435.639 248.79 437.105 249.484 438.232 250.43C439.358 251.375 440.222 252.524 440.822 253.877C441.422 255.23 441.79 256.684 441.926 258.238L443.568 277.006C443.603 277.404 443.493 277.755 443.239 278.059C442.984 278.362 442.658 278.531 442.259 278.566L437.418 278.99C436.979 279.028 436.608 278.92 436.305 278.665C436.042 278.407 435.892 278.079 435.858 277.68L435.654 275.349C435.202 276.152 434.567 276.93 433.75 277.684C432.929 278.398 431.9 279.031 430.663 279.58C429.463 280.087 428.006 280.415 426.293 280.565ZM427.828 274.709C429.223 274.587 430.452 274.178 431.515 273.483C432.619 272.784 433.435 271.789 433.964 270.498C434.53 269.164 434.73 267.54 434.562 265.628L434.452 264.372L428.559 265.852C426.239 266.416 424.536 267.147 423.451 268.045C422.365 268.943 421.872 269.97 421.973 271.126C422.05 272.002 422.375 272.737 422.949 273.329C423.559 273.878 424.297 274.275 425.161 274.521C426.023 274.726 426.912 274.789 427.828 274.709Z" fill="black"/>
<path d="M461.53 276.88C459.139 277.089 457.09 276.847 455.383 276.153C453.676 275.459 452.353 274.33 451.413 272.766C450.469 271.162 449.89 269.125 449.674 266.654L448.487 253.086L443.765 253.499C443.366 253.534 443.015 253.424 442.712 253.17C442.408 252.915 442.239 252.589 442.204 252.19L441.901 248.724C441.866 248.325 441.976 247.974 442.231 247.671C442.485 247.367 442.812 247.198 443.21 247.164L447.932 246.75L447.064 236.828C447.029 236.43 447.119 236.081 447.334 235.781C447.588 235.477 447.935 235.307 448.373 235.268L453.215 234.845C453.613 234.81 453.964 234.92 454.267 235.174C454.571 235.429 454.74 235.755 454.775 236.154L455.643 246.076L463.114 245.422C463.513 245.387 463.864 245.497 464.167 245.752C464.47 246.006 464.639 246.333 464.674 246.731L464.978 250.198C465.012 250.596 464.903 250.947 464.648 251.251C464.393 251.554 464.067 251.723 463.669 251.758L456.197 252.412L457.332 265.382C457.475 267.016 457.865 268.267 458.503 269.134C459.181 269.998 460.237 270.368 461.672 270.242L465.796 269.882C466.195 269.847 466.546 269.956 466.849 270.211C467.152 270.466 467.321 270.792 467.356 271.191L467.68 274.896C467.715 275.295 467.605 275.646 467.351 275.949C467.096 276.252 466.77 276.422 466.371 276.456L461.53 276.88Z" fill="black"/>
<path d="M486.74 274.674C486.182 274.723 485.751 274.62 485.448 274.366C485.144 274.111 484.874 273.774 484.636 273.353L473.663 246.366C473.605 246.171 473.57 245.993 473.556 245.834C473.524 245.475 473.618 245.166 473.836 244.906C474.09 244.602 474.377 244.437 474.696 244.409L479.119 244.022C479.597 243.98 479.988 244.086 480.291 244.341C480.591 244.556 480.771 244.781 480.832 245.016L488.421 264.288L492.922 244.139C492.977 243.853 493.132 243.559 493.387 243.256C493.638 242.912 494.042 242.716 494.6 242.668L497.588 242.406C498.146 242.357 498.579 242.48 498.885 242.774C499.189 243.029 499.393 243.292 499.497 243.564L507.428 262.625L511.555 242.329C511.574 242.086 511.692 241.835 511.91 241.575C512.165 241.271 512.531 241.099 513.01 241.057L517.433 240.67C517.791 240.639 518.102 240.752 518.366 241.01C518.666 241.225 518.831 241.511 518.863 241.87C518.877 242.029 518.852 242.212 518.79 242.418L512.669 270.9C512.588 271.349 512.4 271.727 512.106 272.034C511.851 272.337 511.445 272.513 510.887 272.562L507.002 272.902C506.444 272.95 505.994 272.849 505.651 272.598C505.307 272.347 505.057 272.008 504.899 271.58L497.03 253.236L492.466 272.668C492.345 273.12 492.138 273.499 491.843 273.806C491.589 274.11 491.163 274.287 490.565 274.34L486.74 274.674Z" fill="black"/>
<path d="M531.841 271.331C529.769 271.512 527.861 271.277 526.118 270.627C524.371 269.937 522.94 268.958 521.826 267.69C520.747 266.379 520.133 264.867 519.983 263.153C519.739 260.364 520.661 258.055 522.75 256.226C524.875 254.353 527.766 252.976 531.423 252.094L539.507 250.182L539.397 248.927C539.251 247.253 538.719 245.995 537.802 245.152C536.885 244.308 535.41 243.976 533.378 244.153C531.944 244.279 530.794 244.681 529.93 245.359C529.102 245.993 528.511 246.808 528.156 247.802C527.883 248.348 527.447 248.647 526.85 248.7L522.128 249.113C521.689 249.151 521.34 249.061 521.08 248.843C520.86 248.621 520.732 248.311 520.698 247.913C520.682 247.272 520.873 246.472 521.271 245.514C521.669 244.556 522.349 243.613 523.312 242.685C524.271 241.718 525.542 240.864 527.123 240.123C528.705 239.383 530.651 238.911 532.962 238.709C535.473 238.489 537.612 238.623 539.382 239.111C541.187 239.555 542.653 240.25 543.78 241.196C544.907 242.141 545.77 243.29 546.37 244.643C546.97 245.996 547.339 247.449 547.475 249.003L549.117 267.772C549.151 268.17 549.042 268.521 548.787 268.824C548.533 269.128 548.206 269.297 547.808 269.332L542.966 269.755C542.528 269.794 542.157 269.685 541.853 269.431C541.59 269.173 541.441 268.845 541.406 268.446L541.202 266.115C540.75 266.918 540.116 267.696 539.298 268.45C538.477 269.164 537.449 269.796 536.212 270.346C535.011 270.853 533.554 271.181 531.841 271.331ZM533.376 265.475C534.771 265.353 536 264.944 537.064 264.249C538.167 263.55 538.983 262.555 539.513 261.264C540.079 259.93 540.278 258.306 540.111 256.393L540.001 255.138L534.107 256.617C531.788 257.182 530.085 257.913 528.999 258.811C527.913 259.709 527.421 260.736 527.522 261.891C527.599 262.768 527.924 263.502 528.498 264.095C529.108 264.644 529.845 265.041 530.71 265.286C531.571 265.492 532.46 265.555 533.376 265.475Z" fill="black"/>
<path d="M554.818 268.718C554.42 268.753 554.069 268.643 553.765 268.389C553.462 268.134 553.293 267.808 553.258 267.409L549.796 227.84C549.761 227.442 549.871 227.091 550.126 226.788C550.38 226.484 550.707 226.315 551.105 226.28L555.947 225.857C556.385 225.818 556.736 225.928 556.999 226.186C557.303 226.441 557.472 226.767 557.507 227.166L559.295 247.608L568.505 237.226C568.836 236.875 569.134 236.608 569.399 236.425C569.66 236.201 570.07 236.065 570.628 236.016L576.187 235.53C576.585 235.495 576.915 235.586 577.175 235.805C577.435 236.023 577.582 236.331 577.617 236.73C577.631 236.889 577.607 237.072 577.544 237.278C577.482 237.484 577.338 237.677 577.113 237.858L565.81 250.471L580.914 264.086C581.347 264.45 581.576 264.771 581.6 265.05C581.635 265.449 581.524 265.78 581.266 266.043C581.047 266.303 580.759 266.449 580.4 266.48L574.722 266.977C574.124 267.029 573.679 266.988 573.386 266.853C573.13 266.675 572.808 266.442 572.422 266.154L559.954 255.139L560.969 266.735C561.003 267.133 560.894 267.484 560.639 267.787C560.424 268.087 560.098 268.256 559.66 268.295L554.818 268.718Z" fill="black"/>
<path d="M594.582 265.842C590.159 266.229 586.541 265.26 583.728 262.937C580.914 260.613 579.202 257.109 578.592 252.424C578.517 252.029 578.454 251.533 578.401 250.935C578.346 250.298 578.322 249.798 578.33 249.436C578.228 246.433 578.679 243.784 579.683 241.488C580.726 239.188 582.273 237.366 584.324 236.022C586.371 234.639 588.849 233.819 591.758 233.565C594.986 233.283 597.755 233.723 600.065 234.886C602.372 236.009 604.188 237.717 605.512 240.011C606.834 242.264 607.631 244.945 607.902 248.053L608.012 249.308C608.047 249.707 607.937 250.058 607.683 250.361C607.428 250.664 607.082 250.835 606.643 250.874L586.799 252.61C586.799 252.61 586.805 252.669 586.815 252.789C586.825 252.909 586.834 253.008 586.841 253.088C587.003 254.479 587.375 255.751 587.958 256.905C588.577 258.015 589.396 258.887 590.415 259.521C591.474 260.151 592.681 260.407 594.036 260.288C595.152 260.191 596.074 259.949 596.803 259.564C597.529 259.139 598.112 258.687 598.552 258.207C598.992 257.727 599.299 257.338 599.474 257.042C599.791 256.532 600.045 256.229 600.237 256.132C600.466 255.991 600.799 255.902 601.238 255.864L606.378 255.414C606.777 255.379 607.106 255.471 607.366 255.689C607.666 255.904 607.811 256.192 607.803 256.554C607.819 257.195 607.548 258.002 606.991 258.974C606.473 259.943 605.675 260.916 604.596 261.894C603.517 262.872 602.127 263.736 600.426 264.487C598.762 265.195 596.814 265.646 594.582 265.842ZM586.36 247.589L599.57 246.433L599.554 246.254C599.418 244.7 599.04 243.368 598.421 242.257C597.802 241.147 596.965 240.297 595.909 239.707C594.854 239.116 593.629 238.882 592.234 239.004C590.84 239.126 589.674 239.57 588.737 240.334C587.8 241.099 587.123 242.081 586.706 243.282C586.329 244.48 586.208 245.855 586.344 247.41L586.36 247.589Z" fill="black"/>
<path d="M623.879 263.279C621.488 263.488 619.412 263.388 617.649 262.98C615.927 262.569 614.491 261.992 613.342 261.249C612.193 260.507 611.323 259.739 610.732 258.948C610.14 258.156 609.801 257.484 609.712 256.929C609.634 256.494 609.724 256.145 609.982 255.882C610.276 255.575 610.602 255.406 610.961 255.374L615.683 254.961C615.842 254.947 615.984 254.955 616.107 254.984C616.23 255.014 616.4 255.119 616.616 255.301C617.173 255.694 617.751 256.105 618.35 256.535C618.99 256.961 619.724 257.318 620.552 257.607C621.377 257.856 622.387 257.928 623.583 257.824C625.137 257.688 626.406 257.275 627.389 256.587C628.409 255.855 628.869 254.912 628.768 253.756C628.695 252.919 628.396 252.263 627.873 251.787C627.389 251.307 626.512 250.922 625.242 250.632C623.968 250.301 622.175 249.997 619.862 249.717C617.585 249.394 615.675 248.899 614.131 248.231C612.586 247.563 611.403 246.663 610.582 245.53C609.76 244.397 609.279 243.034 609.14 241.44C609.004 239.886 609.333 238.372 610.127 236.897C610.958 235.378 612.25 234.081 614.003 233.004C615.796 231.924 618.067 231.263 620.816 231.023C622.968 230.834 624.865 230.95 626.508 231.368C628.147 231.747 629.52 232.289 630.625 232.995C631.771 233.698 632.659 234.444 633.29 235.232C633.918 235.98 634.278 236.651 634.37 237.245C634.448 237.68 634.36 238.049 634.106 238.352C633.848 238.616 633.539 238.763 633.181 238.795L628.758 239.182C628.558 239.199 628.376 239.175 628.209 239.109C628.043 239.043 627.875 238.958 627.705 238.852C627.232 238.492 626.717 238.115 626.16 237.722C625.604 237.329 624.933 237.007 624.148 236.754C623.4 236.458 622.428 236.363 621.232 236.467C619.718 236.6 618.592 237.039 617.854 237.787C617.113 238.494 616.786 239.346 616.873 240.342C616.933 241.019 617.164 241.601 617.568 242.088C618.009 242.531 618.826 242.922 620.02 243.259C621.214 243.596 623.007 243.901 625.4 244.173C628.111 244.418 630.286 244.95 631.924 245.771C633.598 246.548 634.808 247.526 635.553 248.706C636.335 249.842 636.791 251.147 636.92 252.621C637.077 254.415 636.68 256.075 635.73 257.604C634.819 259.129 633.364 260.401 631.366 261.419C629.403 262.394 626.908 263.014 623.879 263.279Z" fill="black"/>
<path d="M72.7963 217.7C72.2331 217.749 71.6867 217.584 71.1569 217.205C70.6914 216.749 70.434 216.239 70.3848 215.676C70.354 215.324 70.3615 215.004 70.4072 214.717L89.2913 144.752C89.4348 143.96 89.7986 143.254 90.3829 142.635C91.0315 141.94 91.9541 141.54 93.1509 141.435L108.779 140.068C109.976 139.963 110.919 140.2 111.608 140.778C112.361 141.28 112.877 141.909 113.156 142.665L143.797 208.296C143.962 208.565 144.06 208.876 144.091 209.228C144.141 209.791 143.94 210.34 143.491 210.876C143.105 211.336 142.596 211.593 141.962 211.648L128.974 212.785C127.918 212.877 127.087 212.702 126.48 212.258C125.938 211.738 125.578 211.273 125.401 210.863L120.34 200.452L92.1457 202.919L89.0754 214.041C88.9715 214.476 88.6979 214.996 88.2543 215.602C87.8047 216.138 86.9815 216.459 85.7847 216.563L72.7963 217.7ZM95.1448 187.334L114.786 185.616L102.421 158.607L95.1448 187.334Z" fill="black"/>
<path d="M181.265 209.274C176.689 209.674 172.739 209.523 169.414 208.821C166.154 208.042 163.438 207.003 161.267 205.703C159.167 204.397 157.556 203.013 156.435 201.551C155.308 200.018 154.66 198.691 154.491 197.571C154.353 196.803 154.544 196.148 155.064 195.605C155.578 194.993 156.151 194.659 156.785 194.604L168.823 193.55C169.034 193.532 169.213 193.552 169.36 193.61C169.507 193.668 169.731 193.79 170.031 193.977C170.989 194.39 171.96 194.943 172.943 195.637C173.919 196.261 175.031 196.802 176.277 197.261C177.523 197.719 178.991 197.875 180.68 197.727C182.651 197.554 184.272 197.023 185.541 196.131C186.811 195.24 187.378 194.02 187.243 192.471C187.144 191.345 186.748 190.457 186.052 189.809C185.351 189.09 183.984 188.464 181.951 187.933C179.989 187.395 177.041 186.944 173.108 186.579C169.373 186.054 166.074 185.243 163.212 184.146C160.343 182.978 158.074 181.368 156.405 179.315C154.73 177.191 153.753 174.546 153.476 171.378C153.23 168.562 153.908 165.771 155.51 163.007C157.113 160.242 159.603 157.896 162.981 155.969C166.353 153.971 170.609 152.748 175.748 152.298C179.831 151.941 183.394 152.126 186.437 152.852C189.544 153.503 192.183 154.478 194.354 155.778C196.595 157.071 198.312 158.446 199.503 159.902C200.695 161.359 201.381 162.718 201.562 163.979C201.694 164.676 201.538 165.328 201.095 165.935C200.645 166.471 200.104 166.766 199.47 166.822L188.488 167.782C188.206 167.807 187.922 167.797 187.634 167.751C187.34 167.635 187.081 167.515 186.858 167.393C185.976 167.045 185.082 166.555 184.176 165.925C183.269 165.295 182.228 164.748 181.053 164.283C179.877 163.819 178.444 163.66 176.755 163.808C174.854 163.974 173.413 164.526 172.431 165.463C171.449 166.4 171.016 167.538 171.133 168.875C171.213 169.79 171.569 170.611 172.2 171.336C172.901 172.055 174.195 172.651 176.08 173.124C178.036 173.592 181.02 174.04 185.03 174.469C189.955 174.819 193.938 175.747 196.978 177.255C200.012 178.692 202.229 180.519 203.629 182.738C205.023 184.886 205.831 187.227 206.052 189.761C206.348 193.14 205.589 196.222 203.775 199.005C202.032 201.782 199.254 204.082 195.441 205.906C191.622 207.658 186.896 208.781 181.265 209.274Z" fill="black"/>
<path d="M213.246 205.412C212.471 205.48 211.816 205.289 211.28 204.839C210.744 204.389 210.442 203.777 210.375 203.003L206.033 153.373C205.965 152.598 206.156 151.943 206.606 151.407C207.055 150.871 207.667 150.569 208.442 150.502L220.902 149.412C221.606 149.35 222.226 149.544 222.762 149.994C223.368 150.437 223.705 151.046 223.773 151.82L228.115 201.451C228.183 202.225 227.957 202.883 227.436 203.426C226.987 203.961 226.41 204.26 225.706 204.322L213.246 205.412ZM207.643 142.591C206.869 142.659 206.214 142.468 205.678 142.018C205.142 141.569 204.84 140.957 204.772 140.182L203.95 130.784C203.882 130.01 204.073 129.355 204.523 128.819C204.966 128.212 205.575 127.875 206.35 127.808L218.916 126.708C219.69 126.64 220.348 126.867 220.89 127.387C221.497 127.83 221.834 128.439 221.901 129.214L222.724 138.612C222.791 139.386 222.565 140.044 222.045 140.586C221.596 141.122 220.983 141.424 220.209 141.492L207.643 142.591Z" fill="black"/>
<path d="M263.341 224.438C257.92 224.912 253.353 224.603 249.64 223.509C245.997 222.409 243.033 220.966 240.749 219.179C238.535 217.387 236.884 215.545 235.796 213.654C234.715 211.833 234.09 210.363 233.921 209.243C233.783 208.474 233.974 207.819 234.494 207.277C235.014 206.735 235.661 206.43 236.435 206.362L249.846 205.189C250.48 205.134 251.02 205.228 251.467 205.473C251.991 205.782 252.427 206.311 252.776 207.061C253.196 207.804 253.724 208.574 254.362 209.369C255.069 210.159 255.972 210.754 257.071 211.154C258.247 211.619 259.785 211.768 261.686 211.602C263.798 211.417 265.527 210.911 266.873 210.084C268.226 209.327 269.186 208.143 269.755 206.533C270.33 204.993 270.506 202.956 270.284 200.422L269.665 193.347C268.2 195.248 266.25 196.873 263.814 198.221C261.372 199.499 258.356 200.295 254.766 200.609C251.175 200.923 247.961 200.672 245.123 199.856C242.285 199.041 239.859 197.657 237.844 195.705C235.829 193.753 234.161 191.31 232.84 188.375C231.589 185.434 230.686 182.002 230.13 178.078C229.9 176.254 229.739 174.424 229.65 172.587C229.528 168.767 229.828 165.301 230.549 162.187C231.269 159.074 232.45 156.346 234.089 154.004C235.799 151.655 237.977 149.797 240.624 148.431C243.265 146.994 246.38 146.118 249.971 145.804C253.772 145.472 257.075 145.928 259.88 147.172C262.748 148.34 265.158 149.938 267.109 151.966L266.767 148.059C266.706 147.355 266.9 146.735 267.349 146.199C267.793 145.593 268.402 145.256 269.176 145.188L281.32 144.126C282.094 144.058 282.752 144.284 283.294 144.804C283.901 145.248 284.235 145.821 284.296 146.525L288.74 197.317C289.208 202.668 288.511 207.268 286.649 211.12C284.787 214.972 281.898 218.027 277.981 220.284C274.064 222.542 269.184 223.927 263.341 224.438ZM259.267 186.382C261.52 186.185 263.307 185.532 264.628 184.424C265.95 183.315 266.86 181.959 267.358 180.354C267.927 178.744 268.169 177.056 268.086 175.29C268.088 174.509 268.028 173.415 267.905 172.007C267.782 170.599 267.654 169.546 267.522 168.848C267.291 167.024 266.756 165.368 265.917 163.881C265.148 162.388 264.019 161.245 262.531 160.453C261.037 159.591 259.164 159.258 256.911 159.455C254.588 159.659 252.765 160.315 251.444 161.423C250.192 162.526 249.324 163.95 248.838 165.695C248.423 167.434 248.234 169.33 248.272 171.384C248.337 172.939 248.475 174.523 248.687 176.136C249.007 178.165 249.522 180 250.233 181.64C251.014 183.274 252.117 184.525 253.541 185.394C255.035 186.256 256.944 186.586 259.267 186.382Z" fill="black"/>
<path d="M297.612 198.031C296.837 198.099 296.182 197.908 295.646 197.458C295.11 197.008 294.808 196.396 294.741 195.622L290.399 145.991C290.331 145.217 290.522 144.562 290.971 144.026C291.421 143.49 292.033 143.188 292.808 143.121L304.951 142.058C305.726 141.99 306.381 142.181 306.917 142.631C307.452 143.081 307.754 143.693 307.822 144.467L308.173 148.48C309.812 146.137 312.046 144.098 314.873 142.361C317.701 140.624 321.121 139.579 325.133 139.228C329.216 138.871 332.887 139.472 336.144 141.032C339.472 142.585 342.173 145.08 344.247 148.516C346.386 151.876 347.68 156.125 348.129 161.264L350.707 190.725C350.775 191.5 350.548 192.158 350.028 192.7C349.579 193.236 349.002 193.535 348.298 193.596L334.993 194.76C334.289 194.822 333.634 194.631 333.027 194.188C332.491 193.738 332.19 193.126 332.122 192.351L329.6 163.524C329.31 160.215 328.279 157.751 326.506 156.133C324.797 154.438 322.394 153.726 319.296 153.997C316.41 154.25 314.167 155.368 312.567 157.353C311.032 159.26 310.409 161.869 310.698 165.177L313.22 194.005C313.288 194.78 313.062 195.438 312.542 195.98C312.092 196.516 311.515 196.814 310.811 196.876L297.612 198.031Z" fill="black"/>
<path d="M372.952 192.503C369.151 192.836 365.675 192.431 362.525 191.288C359.439 190.068 356.908 188.303 354.932 185.993C352.957 183.683 351.834 180.98 351.563 177.882C351.125 172.884 352.822 168.763 356.652 165.519C360.477 162.205 365.722 159.725 372.388 158.078L385.412 154.916L385.282 153.438C385.061 150.904 384.363 149.014 383.19 147.769C382.017 146.524 380.023 146.024 377.207 146.271C375.236 146.443 373.651 146.972 372.451 147.857C371.322 148.736 370.464 149.875 369.877 151.275C369.324 152.245 368.484 152.78 367.357 152.878L355.531 153.913C354.756 153.981 354.139 153.822 353.68 153.436C353.215 152.981 352.989 152.433 353.004 151.793C352.893 150.526 353.225 149.043 353.998 147.344C354.836 145.568 356.17 143.784 357.999 141.992C359.829 140.201 362.246 138.642 365.251 137.315C368.256 135.988 371.941 135.133 376.306 134.751C380.881 134.351 384.835 134.537 388.165 135.31C391.496 136.083 394.23 137.333 396.368 139.061C398.575 140.783 400.286 142.904 401.5 145.422C402.707 147.87 403.446 150.643 403.717 153.741L406.525 185.842C406.593 186.616 406.367 187.275 405.847 187.817C405.397 188.353 404.82 188.651 404.116 188.713L391.867 189.785C391.093 189.852 390.438 189.661 389.902 189.212C389.366 188.762 389.064 188.15 388.996 187.376L388.673 183.68C387.875 185.097 386.751 186.437 385.301 187.699C383.85 188.961 382.097 190.001 380.04 190.819C378.061 191.702 375.698 192.263 372.952 192.503ZM376.862 180.031C378.904 179.853 380.697 179.27 382.242 178.284C383.852 177.221 385.034 175.734 385.789 173.824C386.608 171.837 386.895 169.435 386.648 166.619L386.519 165.141L377.682 167.51C374.423 168.363 372.071 169.455 370.627 170.787C369.247 172.043 368.625 173.445 368.76 174.994C368.865 176.191 369.306 177.181 370.084 177.964C370.862 178.747 371.836 179.336 373.005 179.73C374.169 180.054 375.454 180.154 376.862 180.031Z" fill="black"/>
<path d="M414.976 187.763C414.202 187.831 413.547 187.64 413.011 187.19C412.475 186.74 412.173 186.128 412.106 185.354L406.008 115.66C405.94 114.886 406.131 114.23 406.581 113.695C407.031 113.159 407.643 112.857 408.417 112.789L420.878 111.699C421.652 111.631 422.307 111.822 422.843 112.272C423.379 112.722 423.681 113.334 423.748 114.108L429.846 183.802C429.914 184.576 429.723 185.231 429.273 185.767C428.823 186.303 428.211 186.605 427.437 186.673L414.976 187.763Z" fill="black"/>
</svg>
