<?xml version="1.0" encoding="UTF-8"?>
<svg id="Capa_1_copia" xmlns="http://www.w3.org/2000/svg" version="1.1" viewBox="0 0 1035.61 261.53">
  <!-- Generator: Adobe Illustrator 29.6.1, SVG Export Plug-In . SVG Version: 2.1.1 Build 9)  -->
  <defs>
    <style>
      .st0 {
        fill: #e1e1e1;
      }
    </style>
  </defs>
  <path class="st0" d="M709.01,40.85c14.37-.65,31.95-.24,46.52-.23l91.75.23,107.38-.03c18.55,0,39.72-.44,58.03.24-.02,5.61-1.44,15.08-2.18,20.86l-4.15,32.49-10.29,83.2c-1.7,13.96-3.97,29.37-5.22,43.26-24.74.39-50.67,0-75.51,0h-145.57s-441.78.03-441.78.03l-305.07-.06c0-5.58,1.25-14.32,1.99-20l3.92-29.95L44.93,41.08h441.14s111.04.03,111.04.03c37.01.25,74.97.93,111.89-.26Z"/>
  <path d="M709.01,40.85c14.37-.65,31.95-.24,46.52-.23l91.75.23,107.38-.03c18.55,0,39.72-.44,58.03.24-.02,5.61-1.44,15.08-2.18,20.86l-4.15,32.49-10.29,83.2c-1.7,13.96-3.97,29.37-5.22,43.26-24.74.39-50.67,0-75.51,0h-145.57s-441.78.03-441.78.03l-305.07-.06c0-5.58,1.25-14.32,1.99-20l3.92-29.95L44.93,41.08h441.14s111.04.03,111.04.03c37.01.25,74.97.93,111.89-.26ZM29.34,215.03h280.66s62.13,0,62.13,0c3.25,0,19.06.45,20.89-.72,1.16-10.94,2.93-22.21,4.27-33.21l10.47-85.03c1.8-14.27,5.35-35.39,6.09-49.07-49.11-.83-100.2-.09-149.46-.09l-214.12.22-20.94,167.92ZM461.02,203.62c9.01.37,19.84.32,28.88.07l18.07-57.09c3.81-12.09,11.09-34.72,12.54-47.24.39,12.79,2.48,28,4.01,40.91l7.78,63.26c9.17.48,19.51.27,28.75.13,17.02-38.73,34.58-76.93,51.3-115.81,4.24-9.61,8.89-19.72,12.78-29.43l-31.37-.05c-6.55,16.61-13.96,33.16-20.82,49.64-6.79,16.32-15.88,36.61-18.79,54.08-1.61-17.7-3.63-34.4-6.17-52-2.41-16.68-5.54-34.87-6.94-51.62l-31.18-.11-17.8,56.42c-4.93,15.8-11.11,34.12-13.33,50.33-2.64-16.86-7.43-36.09-11.37-52.87l-12.55-53.82-30.1-.04c10.03,44.25,21.46,88.21,32.73,132.16,1.11,4.34,2.26,8.81,3.57,13.09ZM602.1,203.64c8.03.51,26.09.51,34.08.01,5.31-10.23,10.23-20.7,15.49-30.91l18.22.02c11.74-.05,24.82-.34,36.46,0,2.66,10.05,4.48,20.67,6.67,30.87,10.81.04,21.6.12,32.41-.13l-34.8-145.12-33.47-.07c-16.14,30.05-31.72,60.97-47.49,91.26l-18.17,34.9c-3.03,5.92-6.95,13.1-9.4,19.18ZM892.59,203.68c28.82-.12,58.06.21,86.83-.15.64-8.47,2.42-17.29,3.01-25.6-18.62-.2-37.76.29-56.23-.1,1.18-7.16,2.66-17.14,3.39-24.41.38-3.47.93-8.44,1.64-11.78l55.93-.02c1.25-8.09,2.49-17.28,3.36-25.43-18.45-.29-37.51-.13-55.99,0,1.4-10.45,3.07-21.54,4.17-31.98,18.36-.1,38.03.4,56.21-.05,1.04-8.59,2.31-17.18,3.32-25.75-28.48-.11-58.03-.42-86.48-.05-6.17,40.67-10.83,81.76-16.52,122.52-1.05,7.51-1.98,15.26-2.63,22.81ZM780.19,58.36l-19.05,145.4c10.08,0,20.76.19,30.79-.22,2.68-21.16,5.6-51.43,9.67-71.8,10.21,16.81,19.51,34.89,29.52,51.9,3.67,6.23,7.38,13.93,11.2,19.89,11.14.03,23.11.27,34.18-.1l-15.32-26.74c-8.29-14.1-20.99-34.46-28.19-48.77,19.59-21.7,43.68-47.17,61.86-69.57-11.96-.01-24.22-.16-36.16-.01l-36.26,41.64c-5.76,6.65-13.66,16.31-19.71,22.43,1.72-20.48,7.18-44.25,8.15-64.02l-30.69-.03Z"/>
  <path d="M117.27,58.4c10.91-.22,22.62-.02,33.59-.01.72,5.07,2.96,13.58,4.17,18.62l7.72,32.01,22.94,94.41-32.57.11c-2.11-10.16-4.21-20.92-5.92-31.13-10.91-.57-25.66-.17-36.87-.18-6.11-.07-12.08-.07-18.19,0-5.31,10.35-10.72,20.73-15.75,31.21l-33.94-.07c1.76-3.98,3.9-8.12,5.91-11.99,22.95-44.3,46.6-88.37,68.92-132.98ZM114.41,148.81l27.28-.03c-3.87-18.59-7.83-36.96-9.45-55.88-.2-2.34-.4-5.59-1.14-7.72-3.79,10.57-7.25,20.01-12.04,30.17-5.08,10.78-11.31,22.27-15.45,33.43l10.8.03Z"/>
  <path d="M319.54,58.43h30.8s-16.01,119.16-16.01,119.16c15.98.91,33.84-.18,50.23.37-.57,7.69-2.08,17.71-3.03,25.55-26.35.53-54.57,0-81.11-.01l12.13-90.34c2.34-17.72,4.28-37.24,6.98-54.73Z"/>
  <path d="M220.61,58.37l30.77.05c-2.22,11.14-4.01,27.96-5.58,39.51l-10.42,79.73c16.54.61,33.5-.22,50.17.29l-3.24,25.55h-80.88s12.77-97.22,12.77-97.22c2.05-15.59,3.95-32.48,6.42-47.92Z"/>
  <path d="M690.63,86.22c1.51,4.51,2.4,19.05,3.35,25.18,1.83,11.83,5.71,25.57,7.1,37.05-8.45.27-17.84.09-26.36.11l-11.01-.14c4.47-10.57,10.12-21.44,14.77-32.04,4.45-10.12,8.22-19.82,12.15-30.15Z"/>
</svg>