<svg width="1594" height="1115" viewBox="0 0 1594 1115" fill="none" xmlns="http://www.w3.org/2000/svg">
<path d="M624 238.5L744.5 259L644.5 794.5H646.5L883.5 149L752.5 142.5L779 2H663L624 238.5Z" fill="#C9FE6E" stroke="black" stroke-width="2"/>
<path d="M740.765 279L624 238.5L744.5 259L740.765 279Z" fill="#3B5320" stroke="black"/>
<path d="M921.5 172L646.5 794.5L883.5 149L921.5 172Z" fill="#7EA842" stroke="black" stroke-width="2"/>
<path d="M779 2L764.76 77.5L801.5 127.5L824.5 21L779 2Z" fill="#7EA842" stroke="black" stroke-width="2"/>
<path d="M764.76 77.5L801.588 128L798 144.5L752.5 142.5L764.76 77.5Z" fill="#3B5320" stroke="black"/>
<path d="M1468.39 83.3722L1591.26 149.027L1181.81 429.423L1267.26 518.928L664.13 807.446L664.165 805.447L1082.36 511.7L1016.52 415.537L1468.39 83.3722Z" fill="#C9FE6E" stroke="black" stroke-width="2"/>
<path d="M1592.26 149.044L1256.86 378.726L1214.25 461.494L1590.28 262.527L1592.26 149.044Z" fill="#7EA842" stroke="black" stroke-width="2"/>
<path d="M1292.46 564.875L664.13 807.446L1267.26 518.928L1292.46 564.875Z" fill="#7EA842" stroke="black" stroke-width="2"/>
<path d="M1181.81 429.423L1212.75 461.83L1255.86 378.708L1181.81 429.423Z" fill="#3B5320" stroke="black"/>
<path d="M1575.23 853.31L1581.53 988.112L1287.93 914.32L1275.07 1038.95L662.289 821.429L1166.96 897.088L1191.06 779.857L1575.23 853.31Z" fill="#C9FE6E" stroke="black" stroke-width="2"/>
<path d="M1581.53 988.112L1519.92 1047.5L1295.81 975.132L1369.27 934.671L1581.53 988.112Z" fill="#7EA842" stroke="black" stroke-width="2"/>
<path d="M663.683 824.479L662.289 821.429L1275.07 1038.95L1218.84 1102.02L663.683 824.479Z" fill="#7EA842" stroke="black" stroke-width="2"/>
<path d="M1369.26 934.762L1295.81 975.132L1282.46 970.663L1287.93 914.32L1369.26 934.762Z" fill="#3B5320" stroke="black"/>
<path d="M393.704 187.882L628 794L360.604 382.99L262.121 470.722L1.72555 135.215L94.0794 40.0891L201.452 197.739L270.117 298.556L311.477 261.518L393.704 187.882Z" fill="#C9FE6E"/>
<path d="M311.477 261.518L393.704 187.882L628 794L360.604 382.99L262.121 470.722L1.72555 135.215L94.0794 40.0891L201.452 197.739M311.477 261.518L270.117 298.556L201.452 197.739M311.477 261.518L201.452 197.739" stroke="black" stroke-width="2"/>
<path d="M438.939 188.126L394.705 187.865L627 791.5L438.939 188.126Z" fill="#7EA842" stroke="black" stroke-width="2"/>
<path d="M373.373 401.27L262.121 470.722L360.605 382.99L373.373 401.27Z" fill="#3B5320" stroke="black" stroke-width="2"/>
<path d="M94.0798 40.0891L162.569 38.8936L310.985 261.959L200.78 196.751L94.0798 40.0891Z" fill="#7EA842" stroke="black" stroke-width="2"/>
<path d="M203.374 199.206L310.983 261.837L270.118 298.556L203.374 199.206Z" fill="#3B5320" stroke="black"/>
</svg>
